<svg id="Layer_1" data-name="Layer 1" xmlns="http://www.w3.org/2000/svg" viewBox="0 0 1080 1080"><defs><style>.cls-1{fill:#fdfdfd;}.cls-2{fill:#d89900;}.cls-3{fill:#8627ad;}.cls-4{fill:#8727ad;}.cls-5{fill:#dba114;}.cls-6{fill:#e4ba53;}.cls-7{fill:#da9f0d;}.cls-8{fill:#f3e0b2;}.cls-9{fill:#e1b23e;}.cls-10{fill:#dca41b;}.cls-11{fill:#faf3e1;}.cls-12{fill:#f8eed6;}.cls-13{fill:#dda61f;}.cls-14{fill:#dfab2c;}.cls-15{fill:#f1dca8;}.cls-16{fill:#ebcb7e;}.cls-17{fill:#e3b74c;}.cls-18{fill:#da9f0f;}.cls-19{fill:#ebcc7e;}.cls-20{fill:#f5e6c2;}.cls-21{fill:#dea928;}.cls-22{fill:#dda621;}.cls-23{fill:#ecce84;}.cls-24{fill:#fcfaf4;}.cls-25{fill:#faf2e1;}.cls-26{fill:#efd698;}.cls-27{fill:#f0daa2;}.cls-28{fill:#e1b03a;}.cls-29{fill:#d99b04;}.cls-30{fill:#e0ad32;}.cls-31{fill:#d99d09;}.cls-32{fill:#edd18c;}.cls-33{fill:#eac875;}.cls-34{fill:#e5bb55;}.cls-35{fill:#e9c875;}.cls-36{fill:#f9f0db;}.cls-37{fill:#ecce86;}.cls-38{fill:#d99c07;}.cls-39{fill:#dfad33;}.cls-40{fill:#ebcd83;}.cls-41{fill:#f5e6c0;}.cls-42{fill:#ecce85;}.cls-43{fill:#eccf87;}.cls-44{fill:#e1b340;}.cls-45{fill:#e9c773;}.cls-46{fill:#efd598;}.cls-47{fill:#fdfcf8;}.cls-48{fill:#faf4e5;}.cls-49{fill:#fbf7eb;}.cls-50{fill:#fcf9f1;}.cls-51{fill:#faf2e0;}.cls-52{fill:#f7ecd1;}.cls-53{fill:#f8edd4;}.cls-54{fill:#e6bd5b;}.cls-55{fill:#efd69a;}.cls-56{fill:#fbf5e6;}.cls-57{fill:#f2ddaa;}.cls-58{fill:#e4b950;}.cls-59{fill:#e3b546;}.cls-60{fill:#f0d89e;}.cls-61{fill:#f0dba5;}.cls-62{fill:#f7ecd0;}.cls-63{fill:#f1dba7;}.cls-64{fill:#e8c36a;}.cls-65{fill:#f1dca7;}.cls-66{fill:#e8c46c;}.cls-67{fill:#e1b039;}.cls-68{fill:#e6be5c;}.cls-69{fill:#f8ecd1;}.cls-70{fill:#f1dba5;}.cls-71{fill:#dea927;}.cls-72{fill:#ebcc7f;}.cls-73{fill:#e3b545;}.cls-74{fill:#eed493;}.cls-75{fill:#e2b443;}.cls-76{fill:#dfaa2a;}.cls-77{fill:#e2b341;}.cls-78{fill:#f0daa3;}.cls-79{fill:#e2b445;}.cls-80{fill:#f4e5bd;}.cls-81{fill:#fcf9f0;}.cls-82{fill:#e7c062;}.cls-83{fill:#f6e9c8;}.cls-84{fill:#e7c164;}.cls-85{fill:#fdfbf6;}.cls-86{fill:#e1b13b;}.cls-87{fill:#dfad32;}.cls-88{fill:#e2b340;}.cls-89{fill:#eed392;}.cls-90{fill:#e3b647;}.cls-91{fill:#eed494;}.cls-92{fill:#dfac30;}.cls-93{fill:#f0d89d;}.cls-94{fill:#ebcc80;}.cls-95{fill:#f3e1b5;}.cls-96{fill:#e3b749;}.cls-97{fill:#e8c368;}.cls-98{fill:#f5e7c3;}.cls-99{fill:#e2b544;}.cls-100{fill:#e3b74b;}.cls-101{fill:#e3b74a;}.cls-102{fill:#dca318;}.cls-103{fill:#deaa29;}.cls-104{fill:#e1b13c;}.cls-105{fill:#eed391;}.cls-106{fill:#dfaa2b;}.cls-107{fill:#dca41c;}.cls-108{fill:#e0b038;}.cls-109{fill:#e0ae33;}.cls-110{fill:#fefefe;}</style></defs><path class="cls-1" d="M1079.91,540.53q0,267.4.08,534.81c0,3.66-.71,4.64-4.55,4.64q-535.34-.17-1070.67,0c-4.25,0-4.76-1.09-4.76-5Q.16,540,0,4.91C0,.94.69,0,4.82,0Q539.9.21,1075,0c4.47,0,5,1.22,5,5.22Q1079.84,272.87,1079.91,540.53Z" transform="translate(0 0)"/><path class="cls-2" d="M548,662.94c5.28-1,10.52-2.38,15.85-3q22.65-2.71,45.37-4.91c13.83-1.33,27.54-3.42,41.46-4.22,20.11-1.15,40.15-3.74,60.22-5.6,8.27-.77,16.41-2.23,24.84-2.2,23.31.1,46.5-2.87,69.82-3.6,17.35-.55,34.77-1.53,52.13-2.72,14-1,28-.82,42-1.3,16-.54,32.09.4,48.1,1.77,1.08,1.45,3.31,1.52,4.27,3.62-4.67,2-9.81,0-14.29,2.08-13,.45-26,1.29-38.86,2.38-32.26,2.75-64.51,5.87-96.58,10.64-11.93,1.78-24.12,1.79-36.07,3.52-9.87,1.42-19.75,2.55-29.64,3.73-14.2,1.69-28.47,2.44-42.63,4.63-30.89,4.78-61.92,8.65-92.79,13.56-32.19,5.11-64.26,11-96.37,16.56-29.15,5.1-58.21,10.7-87.29,16.15-28.88,5.41-57.47,12.41-86.19,18.7q-44.28,9.72-88.57,19.44c-9.72,2.15-19.37,4.57-29.07,6.82-3.2.74-6.43,1.52-9.65,0-.75.46-1.8.74-2-.27-.33-1.77,1.23-1.09,2.06-1.25-2.35-1.09-2.52,1.94-4.15,2.28-7,1.7-13.66,4.42-20.84,5.3a23.76,23.76,0,0,0-10.27,1.7c-1.85.13-3.53,1-5.34,1.25-.88.25-1.74.54-2.6.84-2.33,1.08-4.85,1.25-7.33,1.65a5.91,5.91,0,0,0-2.63.41c-5.88.44-10.69,5.21-16.94,4.18a1.17,1.17,0,0,1-.31-1.07,2.74,2.74,0,0,1,.81-.88,12.45,12.45,0,0,1,2.21-1.13c1.83-.63,3.67-1.21,5.48-1.91a29.37,29.37,0,0,1,4.52-1.25,20,20,0,0,0,5.64-1.51c1.35-.52,1.93-2.38,3.71-2.19,2.69.17,5.35.26,7.06-2.43,8.49-3.24,17.34-5.27,26-7.79,19.82-5.78,39.47-12.13,59.51-17.09,6.5-1.11,12.65-3.52,19-5.08,6.1-1,11.85-3.34,17.85-4.77,2.46-.83,5.11-.88,7.54-1.87,5.44-.82,10.65-2.63,16-3.73,7.56-1.14,14.79-3.79,22.36-4.9,1.79,0,3.39-1.05,5.2-1,1.87-.42,3.7-1.14,5.68-.87-2-.37-3.79.43-5.67.8-1.8,0-3.41,1-5.21,1.07-7.89,1.24-15.49,3.75-23.32,5.23-5.59,1.05-11,2.66-16.58,3.91-1.58.47-3.28.37-4.83,1-1.93,0-3.54,1.59-5.57,1.16s-3.73.42-5.39,1.4a29,29,0,0,1-6.93,2.09c-5.85,1-11.37,3.1-17,4.75a341.29,341.29,0,0,0-37.81,10.32c-5,1.62-9.89,4-15.38,3.56a5.15,5.15,0,0,1-2.58-1.42c-1.21-1.51,2.52-2.05.74-3.69a10.2,10.2,0,0,1,2.93-1.56c1.29-.31,2.42-1.13,3.77-1.26a6.23,6.23,0,0,0,2.86-1.09c.71-.41,1-1.23,1.72-1.66,3.44-1.74,7-2.91,10.88-1.84,1.58.61,2.67-.84,4.07-1,1.79.07,3.1-1.06,4.54-1.85,1.88-.53,3.89-.49,5.69-1.34,1.12-.61,2.09-1.51,3.42-1.72a28.89,28.89,0,0,0,4.33-.59,14.94,14.94,0,0,0,5.33-1.59,5.74,5.74,0,0,1,1.77-.7c1.6.24,3.2,1.06,4.81,0,1.72-.62,3.42-1.24,5.18-1.73,3.37-1,7-1,10.24-2.37a21.2,21.2,0,0,1,2.56-.94c1.59-.9,3.41-.93,5.1-1.41a12,12,0,0,0,3.58-.94c-.6-.31-.95.24-1.41.33a7.35,7.35,0,0,1-1.92.27,25.25,25.25,0,0,0-5.52,1.65c-1.3.44-2.53,1.06-3.83,1.51-1.91.42-3.78,1.11-5.79.84-1.69-.62-2.53-1.73-2.09-3.59,13.15-2.78,25.53-8.13,38.78-10.91,8.59-1.81,17.81-2.62,25.92-7.34,3.74-2.17,8.76-2.15,13.19-3.12a16.59,16.59,0,0,0,3.15.08c1.66-.57,3.26-1.29,4.88-1.93,13.15-5.62,27.42-6.1,41.17-9,8-1.66,15.77-4,23.7-5.78s16.12-2.69,23.95-4.85c7.29-2,15.23-.32,22.07-4.28,3-.37,6,.83,9-.23h0c.82-.91,2.32-.83,2.95-2a20.65,20.65,0,0,1,9-2.09c2.4,1.6,4.79.38,7.18,0,5-.58,10.53-.12,15-1.37,5.29-1.47,10.65-3.12,16-3.72,9.58-1.08,19-4.25,28.82-2.86C545.34,663.68,546.51,662.51,548,662.94Z" transform="translate(0 0)"/><path class="cls-3" d="M692,468.51q0-48,0-96c0-15.86-7.71-24.4-23.42-26-.82-.08-1.66-.08-2.49-.14a1.7,1.7,0,0,1-1.75-2c.06-1.34,1.07-1.51,2.11-1.54.83,0,1.66,0,2.5,0h69.48c1,0,2,0,3,.05s1.58.43,1.63,1.45-.38,1.9-1.63,2c-1.5.12-3,.26-4.48.42-12.92,1.37-21.15,10.12-21.35,23.22-.2,14,0,28,0,42,0,16,.1,32-.07,48,0,3.66.63,5.12,4.81,5.11q69-.25,137.95,0c4.26,0,4.75-1.51,4.73-5.12-.12-29.49,0-59-.08-88.46,0-15-7.28-23.11-22.19-24.82a8,8,0,0,1-1.48-.22c-1.51-.45-4.31,1-4-2.12.22-2.5,2.64-1.43,4.06-1.44,17-.08,34-.05,51-.05,6.83,0,13.66,0,20.49,0,1.34,0,3.28-.6,3.14,1.92-.12,2.11-1.83,1.59-3,1.59-14.8,0-24.87,10.45-24.79,27.53.28,63.64.14,127.29.08,190.93,0,9.44,3,17.27,10.86,22.86,4.29,3,9.25,3.52,14.26,3.82,1.37.08,2.81,0,2.62,2-.17,1.8-1.62,1.36-2.66,1.36q-36.75,0-73.48,0c-1.06,0-2.53.36-2.64-1.42-.11-2,1.39-1.88,2.73-2,4.83-.33,9.67-.67,13.87-3.46,7.16-4.76,11.17-11.36,11.19-20,.06-29.49,0-59,.09-88.46,0-3.24-1.11-3.82-4-3.81q-69.74.1-139.46,0c-3,0-4,.8-4,3.91.11,29.49-.07,59,.14,88.46.09,13.05,8.49,21.69,21.51,23.06,1.33.14,2.65.28,4,.36,1.14.07,1.89.45,1.94,1.73s-.83,1.62-1.91,1.64c-.84,0-1.67,0-2.5,0q-35,0-70,0c-1.45,0-3.89,1.1-4.18-1.26-.38-3,2.45-2,4-2.14C684,589.89,692,581.07,692,565.48Q692.07,517,692,468.51Z" transform="translate(0 0)"/><path class="cls-3" d="M259.67,494.86c-16.32,0-32.65.08-49-.07-3.42,0-5.28.76-6.61,4.26-7.79,20.51-15.9,40.9-23.84,61.35a36.63,36.63,0,0,0-2.2,7.64c-1.82,11.79,4.38,19.28,16.29,20,1.44.09,3.64-.82,3.59,2s-2.27,1.91-3.68,1.91q-36.72.07-73.45,0c-1.35,0-3.19.62-3.35-1.8-.13-1.91,1-2.14,2.51-2.17,19.48-.37,30.67-12,37.68-28.55Q196.46,467.56,235,375.58c7.22-17.16,14.56-34.27,21.72-51.45a71.43,71.43,0,0,0,4.43-14.26c.27-1.38-.16-3.24,1.93-3.57,2.29-.36,2.62,1.49,3.27,3q11.34,27.14,22.73,54.27,41,98,82,196c5.82,13.92,14.71,24.48,30.21,27.82a48.25,48.25,0,0,0,7.43.6c1.36.07,2.17.46,2.17,2s-.87,2-2.2,2c-.67,0-1.34,0-2,0q-40.72,0-81.46-.06c-1.47,0-4,1.31-4.21-1.81s2.46-2,4-2.1c8.09-.5,13.69-4.69,15.72-12.22,1.17-4.32.44-8.67-1.08-12.75-8.1-21.81-16.38-43.55-24.46-65.38-1-2.7-2.67-2.85-5-2.84C293.32,494.88,276.5,494.86,259.67,494.86Z" transform="translate(0 0)"/><path class="cls-3" d="M601.34,342.9c11.16,0,22.32,0,33.48.05,1.42,0,3.86-1.1,4.07,1.38.24,2.76-2.35,1.65-3.72,1.73-15.21.91-27.75,6.82-37.79,18.56q-39.63,46.32-79.73,92.22c-2.67,3.06-3.11,4.85-.23,8.21,31.21,36.41,62.19,73,93.31,109.51a46.06,46.06,0,0,0,31.91,16.64c1.62.15,4.25-.63,4,2.28-.18,2.62-2.59,1.43-4,1.45-15.85.32-31.65.24-46.53-6.51a53.79,53.79,0,0,1-19.41-14.55q-41.52-49.93-83-99.89c-2.46-3-3.11-4.78-.3-8.27,27.05-33.59,53.81-67.4,80.73-101.1,3.08-3.86,5.34-7.73,3.1-12.73-2.16-4.82-6.38-5.88-11.17-5.86-1.18,0-3,.52-2.86-1.65.14-2,1.93-1.44,3.12-1.44C578,342.88,589.68,342.9,601.34,342.9Z" transform="translate(0 0)"/><path class="cls-4" d="M467.13,595c-11.82,0-23.65,0-35.47,0-1.28,0-3.39,1-3.66-1.3-.33-2.8,2.13-2.09,3.53-2.08,14.92.1,24.08-12.74,24-26.75q-.6-95.68,0-191.37c.12-16.8-10.42-27-24.14-27-1.29,0-3.4.67-3.4-1.74,0-2.81,2.35-1.78,3.73-1.78q35.48-.1,71,0c1.42,0,3.82-1,3.9,1.64s-2.32,1.75-3.79,1.91c-16.4,1.74-23.87,10-23.87,26.57,0,64,.27,127.92-.2,191.88-.11,14.6,9.17,26.39,24,26.63,1.44,0,3.91-.77,3.82,1.84s-2.54,1.51-3.94,1.53C490.79,595,479,595,467.13,595Z" transform="translate(0 0)"/><path class="cls-5" d="M196.24,749a1.72,1.72,0,0,1,1.86,1.15c-1.6,3.22-5.15,2.88-7.79,4.19-1.88.93-4.09,1.07-6.07,1.86A57.4,57.4,0,0,1,170.89,759c-1.38-.47-2.84-.91-1.83-2.89l21.75-8.7a4.23,4.23,0,0,1,3.74-1C195.52,747,195.14,748.48,196.24,749Z" transform="translate(0 0)"/><path class="cls-6" d="M937.84,642.84c-.14-.66-2.6-1.81.35-1.83,4.12,0,8.24,0,13.26,0-2-1.22-3.6-2-3.59-3.87,1.31-.61,2.18.3,3.13.91,2.57.81,5.18.5,7.78.18,3.79-.42,7.47.6,11.2.85.3.19.4.38.3.56s-.21.27-.31.27C959.44,642.93,948.58,642.2,937.84,642.84Z" transform="translate(0 0)"/><path class="cls-7" d="M248.09,729.91l-1,1a2.18,2.18,0,0,1-2.07.36c-1.45-.54-3.75.43-4-2.26l18-5.83,1.95,2.75c.24,2.31-1.84,1.69-2.93,2.33-1.52.61-3.21.5-4.73,1.12C251.67,729.92,249.84,729.49,248.09,729.91Z" transform="translate(0 0)"/><path class="cls-8" d="M142.29,771.12a14.85,14.85,0,0,1-6.18,1.93,17.9,17.9,0,0,0-3.51,0A3.4,3.4,0,0,1,130,772c2-4,5.86-2.55,9.06-3a1,1,0,0,1,1.17-.24A3.09,3.09,0,0,1,142.29,771.12Z" transform="translate(0 0)"/><path class="cls-9" d="M227.81,736.1c-1,2.12-2.51,2.78-4.67,1.87-1.34.6-2.3-.1-3.22-.93,3.37-3.35,8.14-3.23,12.17-4.93a2.29,2.29,0,0,1,.23,2.92C230.89,735.71,229.21,735.3,227.81,736.1Z" transform="translate(0 0)"/><path class="cls-10" d="M232.1,734.91c0-.94,0-1.87,0-2.8l9-3.06c.91,1.51,3.09.32,4,1.87a5.11,5.11,0,0,1-3.66,1.48c-1.65-.83-3,.69-4.54.59l-2.56,2C233.58,734.75,232.81,735.48,232.1,734.91Z" transform="translate(0 0)"/><path class="cls-11" d="M142.29,771.12a4,4,0,0,1-2.18-2.13c.92-.75,2.45-.59,2.95-2,1.66-1.12,3.07-2.65,5.2-2.93a22.78,22.78,0,0,1,.31,3.09A5.9,5.9,0,0,1,147,769.8Z" transform="translate(0 0)"/><path class="cls-12" d="M195.06,747l-4.25.39c-1.55-2.93,1.25-3.44,2.46-3,2.48.81,3.85-1.2,5.81-1.44.46.58,1.59.84.95,2s-1.8,1-2.83,1.21A3.11,3.11,0,0,1,195.06,747Z" transform="translate(0 0)"/><path class="cls-13" d="M169.1,765.86c3.3-1.26,6.52-3.5,10.12-.81-4,1.18-8,2.59-12.18,2.87,0-.22-.09-.45-.13-.67C167.32,766.29,168.57,766.63,169.1,765.86Z" transform="translate(0 0)"/><path class="cls-14" d="M126.32,778.08l-11,3c-1.08.46-1.37,0-1.25-1l8.9-3.32a1.72,1.72,0,0,1,1.27-.25A2.93,2.93,0,0,1,126.32,778.08Z" transform="translate(0 0)"/><path class="cls-15" d="M153.1,770l8-2.11a2.53,2.53,0,0,1,3.11,1.24,22,22,0,0,1-11,1.89c-.3-.21-.41-.43-.32-.66S153,770,153.1,770Z" transform="translate(0 0)"/><path class="cls-16" d="M981.78,639.17,995,640.31c-5.44.39-10.88,1.52-16.25-.17C979.49,639,980.9,639.9,981.78,639.17Z" transform="translate(0 0)"/><path class="cls-17" d="M151.12,764.1c3.06-.84,5.58-3.24,9-3.13.72.32,1.31.74,1.19,1.67-2.34,2.89-5.88,2.28-8.94,3.06C151.58,765.43,151,765.05,151.12,764.1Z" transform="translate(0 0)"/><path class="cls-18" d="M126.32,778.08c-.83-.2-1.76-.23-2.24-1.14.4-1.32,1.53-1.69,2.65-2.09.91-.24,1.81-.51,2.7-.82,1.57-.31,3.15-1.45,4.71,0l0,1Z" transform="translate(0 0)"/><path class="cls-19" d="M484.11,671.78c-2.39,2.75-4.78,3.49-7.18,0C479.32,671.7,481.72,670.32,484.11,671.78Z" transform="translate(0 0)"/><path class="cls-20" d="M888.05,633.13c-3.87,2.25-7.44-.28-11.15-1.09H884C885.17,633.14,887,631.77,888.05,633.13Z" transform="translate(0 0)"/><path class="cls-21" d="M200.06,759.75c.85-3.93,4.85-2.75,7.57-5.11-.84,2.89-2.46,3.29-4.27,3.43-.12,0-.23.13-.34.2l1.11.72C202.92,760,201.46,759.72,200.06,759.75Z" transform="translate(0 0)"/><path class="cls-22" d="M161.24,762.07l-1.15-1.1,7-3.66c.89,1.3.21,2.38-.48,3.47C165,762,163.42,763.25,161.24,762.07Z" transform="translate(0 0)"/><path class="cls-23" d="M465,675.89c-3,1.72-6,1.46-9,.23C458.88,673.84,461.93,675.49,465,675.89Z" transform="translate(0 0)"/><path class="cls-24" d="M134.14,774.07l-5.07.84c-.87-.4-1.61-.86-.93-2L130,772l3,0c.55.53,1.64.78,1,1.93Z" transform="translate(0 0)"/><path class="cls-25" d="M127.05,775.8l-3,1.14-1.07-.19c-1.71-3.53,3.07-1.69,3.12-3.76C127.05,773.73,128.27,774.36,127.05,775.8Z" transform="translate(0 0)"/><path class="cls-26" d="M548,662.94a4.68,4.68,0,0,1-4.08.89c.87-.92,1.75-1.83,2.6-2.76.69-.76,1.74-1.59,2.47-.85C550.14,661.35,547.89,661.83,548,662.94Z" transform="translate(0 0)"/><path class="cls-27" d="M64,798.46c2.57-3,5-2.62,7.16-3.32C69.47,797.06,67.21,797.32,64,798.46Z" transform="translate(0 0)"/><path class="cls-28" d="M114.11,780.07l1.25,1a10.33,10.33,0,0,1-6.54,1.26A9,9,0,0,1,114.11,780.07Z" transform="translate(0 0)"/><path class="cls-29" d="M166.08,760c.34-.9.69-1.79,1-2.68l1.94-1.21a1.75,1.75,0,0,0,2,1.84C170.29,760.81,168.39,760.89,166.08,760Z" transform="translate(0 0)"/><path class="cls-30" d="M345,700c-1.48,1.28-2.82,2.79-5,2.9a1.22,1.22,0,0,1,0-1.89A8.7,8.7,0,0,1,345,700Z" transform="translate(0 0)"/><path class="cls-31" d="M958.77,638.23c-2.62.89-5.23,1.56-7.78-.18Z" transform="translate(0 0)"/><path class="cls-32" d="M99.83,786.28c1.75-2.44,3.31-2.59,5.48-2.92C104,785.43,102.44,785.63,99.83,786.28Z" transform="translate(0 0)"/><path class="cls-33" d="M207,742c-.11,2.17-1.6,2-3.11,1.85-.48-.72-2.51.08-1.77-1.82a1.3,1.3,0,0,1,.73-.07A4.36,4.36,0,0,1,207,742Z" transform="translate(0 0)"/><path class="cls-34" d="M151.12,764.1l1.13.94c-.05,1.88-1.61,1.89-2.85,2.31a1.37,1.37,0,0,1-1.19-.48,1.86,1.86,0,0,1,0-2.78A3.26,3.26,0,0,0,151.12,764.1Z" transform="translate(0 0)"/><path class="cls-35" d="M183.63,748.53c-2.4.14-3.77,1.9-6,1.12C179.28,748.06,181,747.53,183.63,748.53Z" transform="translate(0 0)"/><path class="cls-36" d="M202.16,742l1.77,1.82-3.9,1.06c-.32-.65-.63-1.31-.95-2Z" transform="translate(0 0)"/><path class="cls-37" d="M219.92,737c1.34-.61,2.17.51,3.22.93-1.29.88-2.43,3.23-4.08.39Z" transform="translate(0 0)"/><path class="cls-38" d="M970,639.91c0-.28,0-.55,0-.83l6.9.07c.37.17.49.34.39.53s-.22.3-.33.3Z" transform="translate(0 0)"/><path class="cls-39" d="M164.18,769.15l-3.11-1.24a1.87,1.87,0,0,1,2.05-.94c1.12,1.17,3-.53,4,1l-.06-.06C166.55,769.41,165.15,768.78,164.18,769.15Z" transform="translate(0 0)"/><path class="cls-40" d="M153.1,770c0,.34,0,.68.05,1-.3.53-.46,1.28-.91,1.53-.75.43-1.92.91-2.46,0s2.08-.07,1.27-1.63A2.12,2.12,0,0,1,153.1,770Z" transform="translate(0 0)"/><path class="cls-14" d="M340,701c0,.63,0,1.26,0,1.89-1.11,0-2.4.4-3-1C337.8,700.78,339,701.11,340,701Z" transform="translate(0 0)"/><path class="cls-34" d="M207,742l-4.15,0c1.42-1.63,3.66-.75,5.29-1.73A1.89,1.89,0,0,1,207,742Z" transform="translate(0 0)"/><path class="cls-8" d="M114.67,777.79a4.06,4.06,0,0,1,3.58-1.78C117.44,777.66,116.32,778,114.67,777.79Z" transform="translate(0 0)"/><path class="cls-41" d="M127.05,775.8c-.31-.94-.61-1.88-.92-2.81l2-.06.93,2A2,2,0,0,1,127.05,775.8Z" transform="translate(0 0)"/><path class="cls-42" d="M467.9,673.87c0,2.11-1.36,2.23-2.95,2C464.71,673.44,466.44,673.85,467.9,673.87Z" transform="translate(0 0)"/><path class="cls-43" d="M888.05,633.13c-1.34-.36-3,.36-4-1.09,1.55,0,3.21-.32,4.62.12C889.55,632.44,888.47,632.89,888.05,633.13Z" transform="translate(0 0)"/><path class="cls-44" d="M976.93,640a5.69,5.69,0,0,1-.06-.83l4.91,0c-.78,1-2,.59-3,1Z" transform="translate(0 0)"/><path class="cls-45" d="M143.06,767c0,2.08-1.58,1.9-2.95,2l-1,0C140,767.55,141.75,767.69,143.06,767Z" transform="translate(0 0)"/><path class="cls-46" d="M93.77,787.55a3.57,3.57,0,0,1,3.17-.85C96.09,788.29,95,788.05,93.77,787.55Z" transform="translate(0 0)"/><path class="cls-47" d="M184.1,755l14-4.9c8.12-1.06,15.78-3.89,23.38-6.66,8.88-3.24,18.26-4.5,27.16-7.59,1-.34,2.26.11,3.39.19.45,2.45-1.82,2-2.95,2.76l-30.93,9q-14.49,4.2-29,8.43C187.7,755,185,758.61,184.1,755Z" transform="translate(0 0)"/><path class="cls-48" d="M184.1,755c1.24,2.28,3.89-1.3,5.08,1.22-8.54,2.52-17.2,4.65-25.5,7.92-2.43,1-5.05,1.23-7.58,1.8-1.59-.28-1.59,2.09-3.14,1.87-1.48.29-2.91.37-4-.9l3.33-1.9a33.56,33.56,0,0,0,9-3c1.77-.32,3.54-.65,4.84-2.08a7.46,7.46,0,0,0,5-2Z" transform="translate(0 0)"/><path class="cls-49" d="M249.08,738.83l2.95-2.76c5.25-3.13,11.24-3.72,17-5,1.11,1.45.12,2.17-1,2.85C261.84,735.91,255.67,738.2,249.08,738.83Z" transform="translate(0 0)"/><path class="cls-50" d="M268.07,733.89l1-2.85,7-2.14a21.47,21.47,0,0,1,5-.87c1.78.91,3-2.68,4.89-.66.7.44.65.93.09,1.45C280.13,730.8,274.33,733.14,268.07,733.89Z" transform="translate(0 0)"/><path class="cls-51" d="M308.08,722.07c7.84-2.32,15.71-4.53,23.95-5,.36.18.48.37.36.56s-.23.3-.35.3c-7.68,1.25-14.85,4.76-22.73,5.14C308.22,723.57,308,723.06,308.08,722.07Z" transform="translate(0 0)"/><path class="cls-52" d="M308.08,722.07l1.23,1A82.35,82.35,0,0,1,293.09,727c-.93-.11-1.86-.21-2.32-1.22C296.57,724.71,302.07,722.2,308.08,722.07Z" transform="translate(0 0)"/><path class="cls-53" d="M258,727.75l3.1-1.78a14.81,14.81,0,0,0,6.05-.83c.62.21,1.35.16,1.8.77l-10.86,3.14A.74.74,0,0,1,258,727.75Z" transform="translate(0 0)"/><path class="cls-54" d="M156.1,766c2.32-1.46,4.76-2.4,7.58-1.8C161.71,767.13,159,766.88,156.1,766Z" transform="translate(0 0)"/><path class="cls-55" d="M148.92,766.94a6.74,6.74,0,0,1,4,.9,7.21,7.21,0,0,1-6,2c-1-1.58.71-2,1.22-2.93A2.41,2.41,0,0,1,148.92,766.94Z" transform="translate(0 0)"/><path class="cls-56" d="M290.77,725.81c.89.18,1.84.26,2.32,1.22-2.12,1.51-4.78.89-7,1.79l-.09-1.46A7.88,7.88,0,0,1,290.77,725.81Z" transform="translate(0 0)"/><path class="cls-57" d="M271.06,724a7.55,7.55,0,0,1,5-2,1.33,1.33,0,0,1,0,2c-1.34,1.75-3.38.34-4.94,1.1a.63.63,0,0,1-.29-.7C270.89,724.09,271,724,271.06,724Z" transform="translate(0 0)"/><path class="cls-58" d="M483,695c2.73-1.49,5.68-1.91,9.55-2A15.62,15.62,0,0,1,483,695Z" transform="translate(0 0)"/><path class="cls-59" d="M248.09,729.91a4.34,4.34,0,0,1,4.87-1,1.22,1.22,0,0,1,.49,1.56C251.52,731.56,249.7,731.68,248.09,729.91Z" transform="translate(0 0)"/><path class="cls-60" d="M224.15,751.13l6.9-1.12-.05-.07c-1.65,3-4.56,1.54-6.93,2-.3-.21-.38-.4-.26-.57A.44.44,0,0,1,224.15,751.13Z" transform="translate(0 0)"/><path class="cls-14" d="M353.05,704c1.85-2.63,4.74-.69,6.95-1.69-1.91,2.41-4.56,1.48-7,1.66Z" transform="translate(0 0)"/><path class="cls-61" d="M430.07,705c1.83-2.13,4.41-.55,6.48-1.5A6.84,6.84,0,0,1,430,705Z" transform="translate(0 0)"/><path class="cls-62" d="M253.45,730.48c-.16-.52-.33-1-.49-1.56,1.39-1.59,3.4-.52,5-1.17l.09,1.3A8.23,8.23,0,0,1,253.45,730.48Z" transform="translate(0 0)"/><path class="cls-63" d="M337.06,716.07c1.51-1.75,3.4-1.24,5.92-1-2.18,1.45-3.89,2.18-6,1.57Z" transform="translate(0 0)"/><path class="cls-64" d="M294.09,718.92c1.42-.53,2.78-1.58,4.59-.38a4.53,4.53,0,0,1-4.64,1.55C293.5,719.68,293.51,719.29,294.09,718.92Z" transform="translate(0 0)"/><path class="cls-65" d="M278,721.88c2.12-1.62,3.59-.8,5.77,1.58l-3.7-.55C279.42,722.38,278.36,722.78,278,721.88Z" transform="translate(0 0)"/><path class="cls-66" d="M195.06,747a1.85,1.85,0,0,1,2.14-.93c2.82,2-1.25,1.73-1,2.9C194.59,749.08,194.38,748.31,195.06,747Z" transform="translate(0 0)"/><path class="cls-67" d="M283.55,736.32c1.72-.46,2.86-.59,3.3.87.11.34-.21,1.14-.46,1.2C284.91,738.75,284.76,737.2,283.55,736.32Z" transform="translate(0 0)"/><path class="cls-68" d="M320.7,711.44c-1.25,1.78-2.48,1.68-4.35,1.13A3.31,3.31,0,0,1,320.7,711.44Z" transform="translate(0 0)"/><path class="cls-20" d="M294.09,718.92c0,.39,0,.78,0,1.17l-6.17,2.32C290.35,719.83,292,719,294.09,718.92Z" transform="translate(0 0)"/><path class="cls-28" d="M532,686c2-1.74,4.78-1,7-2,.32.22.42.43.31.64s-.22.31-.33.31c-2.18,1.46-4.65.92-7,1Z" transform="translate(0 0)"/><path class="cls-64" d="M232.1,734.91c.74-.1,1.54-1.31,2.21.11a9.62,9.62,0,0,1-6.5,1.08C228.9,734.48,230.6,735.07,232.1,734.91Z" transform="translate(0 0)"/><path class="cls-69" d="M167.1,768c-1.21-.78-3,.83-4-1,2-.2,3.84-1.52,6-1.11Z" transform="translate(0 0)"/><path class="cls-70" d="M395,711.9c-2.06,1.59-4.49,1.71-6.94,1.78v-.44a13.51,13.51,0,0,1,7-1.26Z" transform="translate(0 0)"/><path class="cls-37" d="M236.87,733c1.39-.62,2.4-2.58,4.35-1.22.28.3.35.56.2.79s-.27.32-.39.32C239.64,732.7,238.31,734.81,236.87,733Z" transform="translate(0 0)"/><path class="cls-71" d="M379.84,700.08c-1.2,1.1-2.32.31-3.42.08.12-.42.12-1,.4-1.21C378.23,698,379.08,698.83,379.84,700.08Z" transform="translate(0 0)"/><path class="cls-28" d="M426.15,689.86c1.8-2.46,3.41-1.69,5-1.26Z" transform="translate(0 0)"/><path class="cls-72" d="M382.06,714.88c-1.84,1.33-3.94,1.13-6,1.06-.28-.24-.36-.44-.22-.61a.48.48,0,0,1,.36-.22l5.89-1c.31.18.41.36.3.53S382.16,714.88,382.06,714.88Z" transform="translate(0 0)"/><path class="cls-60" d="M382.06,714.88a6.77,6.77,0,0,1,0-.78l6-.86v.44C386.11,714.37,384.24,715.41,382.06,714.88Z" transform="translate(0 0)"/><path class="cls-73" d="M558,681.69c-1.67,2.1-3.33.81-4.84.45Z" transform="translate(0 0)"/><path class="cls-74" d="M401,710.83a8.74,8.74,0,0,1-6,1.08l.06.07c1.67-1.65,4-1.12,6-1.85Z" transform="translate(0 0)"/><path class="cls-75" d="M311.65,713.3c-.16,2.11-1.66,1.87-2.71,2.65C309,713.74,310.09,713.5,311.65,713.3Z" transform="translate(0 0)"/><path class="cls-76" d="M252.48,744.93a5.42,5.42,0,0,1-1.58.91,4.47,4.47,0,0,1-2.88-.49l4-1.14Z" transform="translate(0 0)"/><path class="cls-15" d="M339.16,724.12c-1.9,2-3.59,2-6.32,1.37Z" transform="translate(0 0)"/><path class="cls-77" d="M405.49,694.89c-.43-.31-1-.53-1.06-.81-.13-1.09.91-1.21,1.59-1.55s1.51.14,1.29.79S406.19,694.32,405.49,694.89Z" transform="translate(0 0)"/><path class="cls-78" d="M454.86,700.83c-1.73.14-3.34,1.26-5.34.7a5.74,5.74,0,0,1,5.46-1.41c.29.21.37.38.24.52A.5.5,0,0,1,454.86,700.83Z" transform="translate(0 0)"/><path class="cls-79" d="M370.06,700.41c-1.14.49-2.14,1.66-3.77.76C367.23,699.2,368.77,700.19,370.06,700.41Z" transform="translate(0 0)"/><path class="cls-80" d="M348.05,722.91c-1.49.52-2.9,1.68-4.67.57a7.08,7.08,0,0,1,4.67-1.44c.34.19.45.39.34.58S348.16,722.91,348.05,722.91Z" transform="translate(0 0)"/><path class="cls-81" d="M271.06,724l.05,1.07-2.19.87-1.8-.77A6.66,6.66,0,0,1,271.06,724Z" transform="translate(0 0)"/><path class="cls-81" d="M358,720.74,352.85,722a5.5,5.5,0,0,1,5.19-2q.45.29.27.51C358.2,720.67,358.1,720.74,358,720.74Z" transform="translate(0 0)"/><path class="cls-82" d="M281.06,728c-1.47,1.47-3.31.86-5,.87C277.68,728.46,279,726.14,281.06,728Z" transform="translate(0 0)"/><path class="cls-83" d="M337.06,716.07a1.45,1.45,0,0,0-.07.62L332,718a8.26,8.26,0,0,1,0-.86A6.5,6.5,0,0,1,337.06,716.07Z" transform="translate(0 0)"/><path class="cls-84" d="M241,732.88c.06-.37.12-.74.19-1.11l3.85-.85,2.05,0A8.57,8.57,0,0,1,241,732.88Z" transform="translate(0 0)"/><path class="cls-85" d="M278,721.88c.75.22,1.66.13,2.07,1l-4,1c0-.66,0-1.33,0-2Z" transform="translate(0 0)"/><path class="cls-86" d="M272.91,739.3c1.69-1.78,2.93-1.39,4.33-1C276.13,739.31,274.87,739.06,272.91,739.3Z" transform="translate(0 0)"/><path class="cls-87" d="M914.74,640.43a4.62,4.62,0,0,1,4.39.1A4.62,4.62,0,0,1,914.74,640.43Z" transform="translate(0 0)"/><path class="cls-88" d="M544,684c1.44-1.72,3.18-1,4.92,0h-5Z" transform="translate(0 0)"/><path class="cls-71" d="M194.31,759c1.21-1.47,2.47-1,4.17-.73A5.35,5.35,0,0,1,194.31,759Z" transform="translate(0 0)"/><path class="cls-86" d="M213.56,754.64c2.08-2.09,3.24-1.48,4.45-1Z" transform="translate(0 0)"/><path class="cls-89" d="M424,705.93c-1.2,1.88-3.47.66-4.95,1.73l0-.61c1.35-1.77,3.26-.92,4.95-1.07Z" transform="translate(0 0)"/><path class="cls-90" d="M365.45,708.23a2.74,2.74,0,0,1-2.67,1.35.91.91,0,0,1-.27-.77C363.1,707.78,364.05,707.91,365.45,708.23Z" transform="translate(0 0)"/><path class="cls-58" d="M483,695c-1.74,1.88-4,.66-6,1v0c1.76-1.75,4-.72,6-1Z" transform="translate(0 0)"/><path class="cls-91" d="M401,710.83v-.7l4.59-.9C404.3,711.29,402.65,711,401,710.83Z" transform="translate(0 0)"/><path class="cls-92" d="M310.07,731c1.13-1.51,2.82-.94,4.82-1.39-1.57,2.06-3.37,1.12-4.84,1.36Z" transform="translate(0 0)"/><path class="cls-93" d="M419.05,707.05a4.17,4.17,0,0,0,0,.61l-5,1.08c-.33-.2-.43-.38-.32-.57s.22-.27.33-.27C415.5,706.47,417.31,707,419.05,707.05Z" transform="translate(0 0)"/><path class="cls-84" d="M231.05,750c1-1.68,2.58-1.34,5.17-1.38-2.21,1.79-3.77,1.3-5.22,1.31Z" transform="translate(0 0)"/><path class="cls-94" d="M362,719c1.1-1.37,2.49-1.21,4.64-.62L362,719.81c-.3-.22-.39-.41-.27-.58A.46.46,0,0,1,362,719Z" transform="translate(0 0)"/><path class="cls-60" d="M430,705c-1.79,1.77-4,.69-6.07.95l0,.05c1.82-1.62,4-.92,6.07-1Z" transform="translate(0 0)"/><path class="cls-14" d="M353,704a3.73,3.73,0,0,1-3.67,1.56c.84-2.32,2.5-1.25,3.69-1.53Z" transform="translate(0 0)"/><path class="cls-95" d="M414,707.9c0,.28,0,.56,0,.84h-4.19v-.54Z" transform="translate(0 0)"/><path class="cls-96" d="M519.15,688.37c-1,1-2,.66-3.14.32C517,687.4,518,687.94,519.15,688.37Z" transform="translate(0 0)"/><path class="cls-90" d="M323.53,728.44c-1.56.66-2.61.76-3.69,0C320.91,727.7,322,727.83,323.53,728.44Z" transform="translate(0 0)"/><path class="cls-97" d="M539,685a4.3,4.3,0,0,1,0-1h5l0,0C542.59,685.66,540.69,684.76,539,685Z" transform="translate(0 0)"/><path class="cls-98" d="M362,719c0,.27-.06.54-.07.82l-4,.93A2,2,0,0,1,358,720C359.12,718.67,360.61,718.94,362,719Z" transform="translate(0 0)"/><path class="cls-99" d="M347.57,705.28c-2,.8-2.66,1.11-3.37,1.35-.06,0-.43-.48-.37-.61C344.33,705,345.22,705,347.57,705.28Z" transform="translate(0 0)"/><path class="cls-100" d="M305,732c-1.28,1.47-2.73,1-4.19,0H305Z" transform="translate(0 0)"/><path class="cls-101" d="M532,686c-1.14,1.34-2.49,1.29-4.12.58,1.38-1.1,2.83-.37,4.16-.54Z" transform="translate(0 0)"/><path class="cls-102" d="M504.87,690.4a3.19,3.19,0,0,1,3.28,0A2.51,2.51,0,0,1,504.87,690.4Z" transform="translate(0 0)"/><path class="cls-103" d="M477.05,695.93c-1.13,1.41-2.52,1.19-4.19.63,1.43-1,2.88-.39,4.2-.6Z" transform="translate(0 0)"/><path class="cls-104" d="M376.18,715.11c-.05.27-.09.55-.14.83-.74,1.21-1.78,1.23-3.44.58Z" transform="translate(0 0)"/><path class="cls-105" d="M134,773.89,133,772c1.13.06,2.35-.14,3.07,1.1A1.94,1.94,0,0,1,134,773.89Z" transform="translate(0 0)"/><path class="cls-106" d="M305,732c1.39-1.78,3.35-.75,5.05-1l0,0c-1.41,1.67-3.34.8-5,1Z" transform="translate(0 0)"/><path class="cls-64" d="M224.15,751.13c0,.26-.05.53-.08.8-.91,1.25-2,1.31-3.74.46Z" transform="translate(0 0)"/><path class="cls-21" d="M212.54,755.6a9.14,9.14,0,0,1-1.63.3c-.61,0-1.43-.06-.93-1,.13-.24.85-.33,1.24-.24S212,755.16,212.54,755.6Z" transform="translate(0 0)"/><path class="cls-107" d="M356.32,709.94c.81-1.3,1.81-1.1,3-.58C358.37,710.1,357.5,710.58,356.32,709.94Z" transform="translate(0 0)"/><path class="cls-108" d="M454.86,700.83c.05-.24.09-.47.12-.71.44-.75,1-1.23,1.87-.63.22.15.47.59.4.77C456.73,701.49,455.69,700.75,454.86,700.83Z" transform="translate(0 0)"/><path class="cls-109" d="M465.22,698.48a3.41,3.41,0,0,1-3.5,0A3,3,0,0,1,465.22,698.48Z" transform="translate(0 0)"/><path class="cls-53" d="M348.05,722.91a6.31,6.31,0,0,1,0-.87c.93.05,2.23-1.77,2.6-.14C350.93,723.17,349.08,722.85,348.05,722.91Z" transform="translate(0 0)"/><path class="cls-88" d="M292.15,734c.91.08,2.59.06,2.61.27.18,1.26-.95.58-1.52.69a3.43,3.43,0,0,1-1.32-.29Z" transform="translate(0 0)"/><path class="cls-110" d="M261.31,354.58c16.16,43.29,31.93,85.57,47.87,128.28H241.06c-8.32,0-16.65-.2-25,.09-4.31.15-5.43-.48-3.61-5,9.49-23.58,18.68-47.28,28-70.94q9.3-23.65,18.61-47.3C259.61,358.35,260.24,357,261.31,354.58Z" transform="translate(0 0)"/></svg>